<svg width="49" height="11" viewBox="0 0 49 11" fill="none" xmlns="http://www.w3.org/2000/svg">
<path d="M4.46597 10.3881C3.57931 10.3881 2.79997 10.1827 2.12797 9.77206C1.45597 9.35206 0.933306 8.75473 0.559972 7.98006C0.186639 7.2054 -2.7746e-05 6.2814 -2.7746e-05 5.20806C-2.7746e-05 4.13473 0.186639 3.21073 0.559972 2.43606C0.933306 1.65206 1.45597 1.05006 2.12797 0.630062C2.79997 0.210062 3.57931 6.23465e-05 4.46597 6.23465e-05C5.66997 6.23465e-05 6.60331 0.303396 7.26597 0.910062C7.92864 1.51673 8.36264 2.34273 8.56797 3.38806L7.29397 3.47206C7.15397 2.76273 6.85531 2.20273 6.39797 1.79206C5.94064 1.3814 5.29664 1.17606 4.46597 1.17606C3.83131 1.17606 3.27131 1.3394 2.78597 1.66606C2.30997 1.9834 1.93664 2.4454 1.66597 3.05206C1.39531 3.6494 1.25997 4.36806 1.25997 5.20806C1.25997 6.04806 1.39531 6.76673 1.66597 7.36406C1.93664 7.9614 2.30997 8.41873 2.78597 8.73606C3.27131 9.0534 3.83131 9.21206 4.46597 9.21206C5.33397 9.21206 6.00597 8.98806 6.48197 8.54006C6.95797 8.08273 7.25664 7.46673 7.37797 6.69206L8.65197 6.77606C8.53064 7.49473 8.29264 8.12473 7.93797 8.66606C7.58331 9.2074 7.11197 9.63206 6.52397 9.94006C5.94531 10.2387 5.25931 10.3881 4.46597 10.3881ZM11.765 10.1641V0.224062H12.969V9.60406L12.367 8.98806H17.939V10.1641H11.765ZM24.4668 10.3881C23.5242 10.3881 22.7122 10.1827 22.0308 9.77206C21.3588 9.35206 20.8408 8.75473 20.4768 7.98006C20.1128 7.2054 19.9308 6.2814 19.9308 5.20806C19.9308 4.13473 20.1128 3.21073 20.4768 2.43606C20.8408 1.65206 21.3588 1.05006 22.0308 0.630062C22.7122 0.210062 23.5242 6.23465e-05 24.4668 6.23465e-05C25.4188 6.23465e-05 26.2308 0.210062 26.9028 0.630062C27.5842 1.05006 28.1068 1.65206 28.4708 2.43606C28.8348 3.21073 29.0168 4.13473 29.0168 5.20806C29.0168 6.2814 28.8348 7.2054 28.4708 7.98006C28.1068 8.75473 27.5842 9.35206 26.9028 9.77206C26.2308 10.1827 25.4188 10.3881 24.4668 10.3881ZM24.4668 9.21206C25.1575 9.21206 25.7455 9.0534 26.2308 8.73606C26.7255 8.41873 27.1035 7.9614 27.3648 7.36406C27.6262 6.76673 27.7568 6.04806 27.7568 5.20806C27.7568 4.36806 27.6262 3.6494 27.3648 3.05206C27.1035 2.4454 26.7255 1.9834 26.2308 1.66606C25.7455 1.3394 25.1575 1.17606 24.4668 1.17606C23.7855 1.17606 23.1975 1.3394 22.7028 1.66606C22.2175 1.9834 21.8442 2.4454 21.5828 3.05206C21.3215 3.6494 21.1908 4.36806 21.1908 5.20806C21.1908 6.04806 21.3215 6.76673 21.5828 7.36406C21.8442 7.9614 22.2175 8.41873 22.7028 8.73606C23.1975 9.0534 23.7855 9.21206 24.4668 9.21206ZM35.7544 10.3881C34.9891 10.3881 34.3218 10.2434 33.7524 9.95406C33.1831 9.66473 32.7304 9.26806 32.3944 8.76406C32.0678 8.25073 31.8764 7.65806 31.8204 6.98606L33.0804 6.90206C33.1458 7.39673 33.2904 7.81673 33.5144 8.16206C33.7384 8.5074 34.0371 8.76873 34.4104 8.94606C34.7931 9.1234 35.2504 9.21206 35.7824 9.21206C36.2491 9.21206 36.6458 9.1514 36.9724 9.03006C37.2991 8.90873 37.5464 8.7314 37.7144 8.49806C37.8918 8.26473 37.9804 7.98006 37.9804 7.64406C37.9804 7.33606 37.9058 7.0654 37.7564 6.83206C37.6164 6.5894 37.3411 6.37006 36.9304 6.17406C36.5291 5.96873 35.9318 5.76806 35.1384 5.57206C34.3731 5.37606 33.7618 5.1614 33.3044 4.92806C32.8564 4.69473 32.5298 4.41006 32.3244 4.07406C32.1284 3.73806 32.0304 3.32273 32.0304 2.82806C32.0304 2.26806 32.1611 1.77806 32.4224 1.35806C32.6931 0.928729 33.0758 0.597395 33.5704 0.364062C34.0651 0.121396 34.6531 6.23465e-05 35.3344 6.23465e-05C36.0624 6.23465e-05 36.6878 0.140062 37.2104 0.420062C37.7331 0.690728 38.1484 1.06406 38.4564 1.54006C38.7644 2.01606 38.9558 2.5574 39.0304 3.16406L37.7704 3.24806C37.7144 2.84673 37.5838 2.49206 37.3784 2.18406C37.1824 1.86673 36.9118 1.6194 36.5664 1.44206C36.2211 1.26473 35.8011 1.17606 35.3064 1.17606C34.6904 1.17606 34.2004 1.3254 33.8364 1.62406C33.4724 1.9134 33.2904 2.29606 33.2904 2.77206C33.2904 3.08006 33.3604 3.33673 33.5004 3.54206C33.6498 3.73806 33.9111 3.9154 34.2844 4.07406C34.6578 4.2234 35.1944 4.38673 35.8944 4.56406C36.7251 4.7694 37.3831 5.01673 37.8684 5.30606C38.3631 5.58606 38.7131 5.91273 38.9184 6.28606C39.1331 6.6594 39.2404 7.08406 39.2404 7.56006C39.2404 8.13873 39.0911 8.64273 38.7924 9.07206C38.4938 9.49206 38.0831 9.81873 37.5604 10.0521C37.0378 10.2761 36.4358 10.3881 35.7544 10.3881ZM42.5021 10.1641V0.224062H48.7461V1.40006H43.7061V4.60606H48.5781V5.75406H43.7061V8.98806H48.8581V10.1641H42.5021Z" fill="black"/>
</svg>
