<svg width="289" height="63" viewBox="0 0 289 63" fill="none" xmlns="http://www.w3.org/2000/svg">
<path d="M60.0819 22.144L60.2739 20.224H60.4659C61.2979 20.9494 62.2366 21.5147 63.2819 21.92C64.3272 22.3254 65.3619 22.528 66.3859 22.528C67.8366 22.528 69.0099 22.1334 69.9059 21.344C70.8019 20.5334 71.2499 19.456 71.2499 18.112C71.2499 17.3654 71.0792 16.672 70.7379 16.032C70.4179 15.392 69.8739 14.7414 69.1059 14.08C68.3592 13.4187 67.3246 12.704 66.0019 11.936C65.0846 11.4027 64.2099 10.848 63.3779 10.272C62.5459 9.67469 61.8632 8.99202 61.3299 8.22402C60.7966 7.43469 60.5299 6.49602 60.5299 5.40802C60.5299 3.78669 61.1166 2.48535 62.2899 1.50402C63.4632 0.501354 65.0099 2.09808e-05 66.9299 2.09808e-05C67.7832 2.09808e-05 68.7006 0.096021 69.6819 0.288021C70.6632 0.458688 71.4206 0.682688 71.9539 0.960022L71.7939 2.75202H71.6019C70.3859 1.42935 68.8286 0.768021 66.9299 0.768021C65.5646 0.768021 64.4659 1.12002 63.6339 1.82402C62.8019 2.50669 62.3859 3.43469 62.3859 4.60802C62.3859 5.48269 62.6099 6.24002 63.0579 6.88002C63.5272 7.49869 64.1246 8.06402 64.8499 8.57602C65.5752 9.06669 66.3539 9.54669 67.1859 10.016C68.1459 10.5707 69.0739 11.1574 69.9699 11.776C70.8872 12.3947 71.6339 13.1414 72.2099 14.016C72.8072 14.8694 73.1059 15.9467 73.1059 17.248C73.1059 18.4427 72.8286 19.4987 72.2739 20.416C71.7192 21.312 70.9299 22.016 69.9059 22.528C68.9032 23.04 67.7299 23.296 66.3859 23.296C65.5326 23.296 64.5299 23.1894 63.3779 22.976C62.2259 22.7627 61.1272 22.4854 60.0819 22.144ZM75.1209 22.848L83.7289 0.448021H85.7129L94.3209 22.848H91.9849L88.0169 12.352H80.7529L77.4569 22.848H75.1209ZM83.9529 2.11202L80.9769 11.584H87.7289L84.1449 2.11202H83.9529ZM101.765 22.848V1.08802C101.445 1.08802 100.784 1.15202 99.7811 1.28002L93.5091 2.08002V0.448021H112.197V2.08002L105.925 1.28002C104.922 1.15202 104.261 1.08802 103.941 1.08802V22.848H101.765ZM116.115 0.448021H118.291V13.952C118.291 16.5334 118.92 18.5494 120.179 20C121.459 21.4294 123.251 22.144 125.555 22.144C127.006 22.144 128.264 21.8667 129.331 21.312C130.419 20.736 131.251 19.9467 131.827 18.944C132.424 17.9414 132.702 16.7894 132.659 15.488L132.115 0.448021H134.291L133.747 15.488C133.662 18.048 132.894 19.9894 131.443 21.312C130.014 22.6347 127.966 23.296 125.299 23.296C122.419 23.296 120.168 22.464 118.547 20.8C116.926 19.1147 116.115 16.8107 116.115 13.888V0.448021ZM141.006 0.448021H145.294C147.556 0.448021 149.305 0.928021 150.542 1.88802C151.801 2.82669 152.43 4.14936 152.43 5.85602C152.43 7.17869 152.036 8.27736 151.246 9.15202C150.478 10.0267 149.358 10.6134 147.886 10.912V11.104C149.294 11.3814 150.446 12.0427 151.342 13.088C152.238 14.1334 152.91 15.424 153.358 16.96C153.764 18.368 154.158 19.4667 154.542 20.256C154.948 21.024 155.385 21.5787 155.854 21.92C156.345 22.2614 156.921 22.5067 157.582 22.656V22.848H156.27C155.332 22.848 154.553 22.6774 153.934 22.336C153.337 21.9947 152.825 21.4187 152.398 20.608C151.972 19.7974 151.566 18.6774 151.182 17.248C150.564 15.0507 149.742 13.4934 148.718 12.576C147.694 11.6587 146.446 11.2 144.974 11.2H144.782V10.624H144.974C148.409 10.624 150.126 9.04535 150.126 5.88802C150.126 2.77335 148.516 1.21602 145.294 1.21602H143.182V22.848H141.006V0.448021ZM160.578 22.848V0.448021H167.618C170.092 0.448021 172.247 0.917355 174.082 1.85602C175.916 2.79469 177.346 4.10669 178.37 5.79202C179.394 7.45602 179.906 9.40802 179.906 11.648C179.906 13.888 179.394 15.8507 178.37 17.536C177.346 19.2 175.916 20.5014 174.082 21.44C172.247 22.3787 170.092 22.848 167.618 22.848H160.578ZM167.618 1.21602H162.754V22.08H167.618C170.711 22.08 173.122 21.1627 174.85 19.328C176.599 17.4934 177.474 14.9334 177.474 11.648C177.474 8.36269 176.599 5.80269 174.85 3.96802C173.122 2.13335 170.711 1.21602 167.618 1.21602ZM182.04 22.848L190.648 0.448021H192.632L201.24 22.848H198.904L194.936 12.352H187.672L184.376 22.848H182.04ZM190.872 2.11202L187.896 11.584H194.648L191.064 2.11202H190.872ZM208.364 22.848V13.376L200.428 0.448021H202.86L209.996 12.16H210.188L215.884 0.448021H218.316L210.668 12.928V22.848H208.364ZM216.906 21.504C216.906 21.0134 217.066 20.6187 217.386 20.32C217.706 20 218.122 19.84 218.634 19.84C219.232 19.84 219.68 20.064 219.978 20.512C220.298 20.9387 220.458 21.5574 220.458 22.368C220.458 23.4134 220.192 24.384 219.658 25.28C219.146 26.1974 218.421 26.976 217.482 27.616L217.162 27.136C218.634 26.0267 219.413 24.4694 219.498 22.464C219.242 22.8694 218.869 23.072 218.378 23.072C217.93 23.072 217.568 22.9227 217.29 22.624C217.034 22.3254 216.906 21.952 216.906 21.504ZM2.28882e-05 57.144L0.192023 55.224H0.384023C1.21602 55.9494 2.15469 56.5147 3.20002 56.92C4.24536 57.3254 5.28002 57.528 6.30402 57.528C7.75469 57.528 8.92802 57.1334 9.82402 56.344C10.72 55.5334 11.168 54.456 11.168 53.112C11.168 52.3654 10.9974 51.672 10.656 51.032C10.336 50.392 9.79202 49.7414 9.02402 49.08C8.27736 48.4187 7.24269 47.704 5.92002 46.936C5.00269 46.4027 4.12802 45.848 3.29602 45.272C2.46402 44.6747 1.78136 43.992 1.24802 43.224C0.714689 42.4347 0.448023 41.496 0.448023 40.408C0.448023 38.7867 1.03469 37.4854 2.20802 36.504C3.38136 35.5014 4.92802 35 6.84802 35C7.70136 35 8.61869 35.096 9.60002 35.288C10.5814 35.4587 11.3387 35.6827 11.872 35.96L11.712 37.752H11.52C10.304 36.4294 8.74669 35.768 6.84802 35.768C5.48269 35.768 4.38402 36.12 3.55202 36.824C2.72002 37.5067 2.30402 38.4347 2.30402 39.608C2.30402 40.4827 2.52802 41.24 2.97602 41.88C3.44536 42.4987 4.04269 43.064 4.76802 43.576C5.49336 44.0667 6.27202 44.5467 7.10402 45.016C8.06402 45.5707 8.99202 46.1574 9.88802 46.776C10.8054 47.3947 11.552 48.1414 12.128 49.016C12.7254 49.8694 13.024 50.9467 13.024 52.248C13.024 53.4427 12.7467 54.4987 12.192 55.416C11.6374 56.312 10.848 57.016 9.82402 57.528C8.82136 58.04 7.64802 58.296 6.30402 58.296C5.45069 58.296 4.44802 58.1894 3.29602 57.976C2.14402 57.7627 1.04536 57.4854 2.28882e-05 57.144ZM18.367 57.848V35.448H28.127V37.016L22.527 36.28C21.5457 36.152 20.8844 36.088 20.543 36.088V45.848C20.8204 45.848 21.4817 45.816 22.527 45.752L27.775 45.432V46.904L22.527 46.584C21.4817 46.52 20.8204 46.488 20.543 46.488V57.208C20.927 57.208 21.599 57.144 22.559 57.016L28.223 56.28V57.848H18.367ZM33.9695 57.848V35.448H37.9695C40.5509 35.448 42.5562 36.0027 43.9855 37.112C45.4149 38.2 46.1295 39.7254 46.1295 41.688C46.1295 43.6507 45.4149 45.1867 43.9855 46.296C42.5562 47.384 40.5509 47.928 37.9695 47.928H36.1455V57.848H33.9695ZM37.9695 36.216H36.1455V47.16H37.9695C41.8735 47.16 43.8255 45.336 43.8255 41.688C43.8255 38.04 41.8735 36.216 37.9695 36.216ZM56.3795 57.848V36.088C56.0595 36.088 55.3982 36.152 54.3955 36.28L48.1235 37.08V35.448H66.8115V37.08L60.5395 36.28C59.5369 36.152 58.8755 36.088 58.5555 36.088V57.848H56.3795ZM71.0495 57.848V35.448H80.8095V37.016L75.2095 36.28C74.2282 36.152 73.5669 36.088 73.2255 36.088V45.848C73.5029 45.848 74.1642 45.816 75.2095 45.752L80.4575 45.432V46.904L75.2095 46.584C74.1642 46.52 73.5029 46.488 73.2255 46.488V57.208C73.6095 57.208 74.2815 57.144 75.2415 57.016L80.9055 56.28V57.848H71.0495ZM107.74 35.448V57.848H105.564V37.304H105.372L97.628 52.152H96.636L87.836 39.064H87.644L88.348 57.848H86.172L86.972 35H87.612L97.692 49.976H97.884L105.436 35.448H107.74ZM115.098 57.848V35.448H119.546C121.85 35.448 123.642 35.928 124.922 36.888C126.202 37.848 126.842 39.1814 126.842 40.888C126.842 42.1467 126.469 43.224 125.722 44.12C124.976 44.9947 123.93 45.592 122.586 45.912V46.104C124.421 46.3387 125.85 46.9787 126.874 48.024C127.92 49.048 128.442 50.3494 128.442 51.928C128.442 53.784 127.728 55.2347 126.298 56.28C124.869 57.3254 122.864 57.848 120.282 57.848H115.098ZM119.578 36.216H117.274V45.816H119.546C122.917 45.816 124.602 44.216 124.602 41.016C124.602 37.816 122.928 36.216 119.578 36.216ZM120.282 46.584H117.274V57.08H120.282C124.186 57.08 126.138 55.3307 126.138 51.832C126.138 48.3334 124.186 46.584 120.282 46.584ZM133.888 57.848V35.448H143.648V37.016L138.048 36.28C137.067 36.152 136.406 36.088 136.064 36.088V45.848C136.342 45.848 137.003 45.816 138.048 45.752L143.296 45.432V46.904L138.048 46.584C137.003 46.52 136.342 46.488 136.064 46.488V57.208C136.448 57.208 137.12 57.144 138.08 57.016L143.744 56.28V57.848H133.888ZM149.491 35.448H153.779C156.04 35.448 157.789 35.928 159.027 36.888C160.285 37.8267 160.915 39.1494 160.915 40.856C160.915 42.1787 160.52 43.2774 159.731 44.152C158.963 45.0267 157.843 45.6134 156.371 45.912V46.104C157.779 46.3814 158.931 47.0427 159.827 48.088C160.723 49.1334 161.395 50.424 161.843 51.96C162.248 53.368 162.643 54.4667 163.027 55.256C163.432 56.024 163.869 56.5787 164.339 56.92C164.829 57.2614 165.405 57.5067 166.067 57.656V57.848H164.755C163.816 57.848 163.037 57.6774 162.419 57.336C161.821 56.9947 161.309 56.4187 160.883 55.608C160.456 54.7974 160.051 53.6774 159.667 52.248C159.048 50.0507 158.227 48.4934 157.203 47.576C156.179 46.6587 154.931 46.2 153.459 46.2H153.267V45.624H153.459C156.893 45.624 158.611 44.0454 158.611 40.888C158.611 37.7734 157 36.216 153.779 36.216H151.667V57.848H149.491V35.448ZM174.039 57.848V57.272L182.071 46.904C183.906 44.536 184.823 42.3707 184.823 40.408C184.823 38.9787 184.439 37.848 183.671 37.016C182.903 36.184 181.89 35.768 180.631 35.768C179.756 35.768 178.86 35.9814 177.943 36.408C177.026 36.8134 176.204 37.3787 175.479 38.104H175.287L175.127 36.376C175.874 35.9494 176.727 35.6187 177.687 35.384C178.668 35.128 179.65 35 180.631 35C182.594 35 184.172 35.48 185.367 36.44C186.583 37.3787 187.191 38.6374 187.191 40.216C187.191 41.1974 186.892 42.2854 186.295 43.48C185.698 44.6534 184.663 46.0827 183.191 47.768L176.087 55.928H187.799V57.848H174.039ZM191.323 46.648C191.323 44.3014 191.643 42.264 192.283 40.536C192.923 38.7867 193.819 37.432 194.971 36.472C196.145 35.4907 197.499 35 199.035 35C200.593 35 201.947 35.4907 203.099 36.472C204.251 37.432 205.147 38.7867 205.787 40.536C206.427 42.264 206.747 44.3014 206.747 46.648C206.747 48.9734 206.427 51.0107 205.787 52.76C205.147 54.5094 204.251 55.8747 203.099 56.856C201.947 57.816 200.593 58.296 199.035 58.296C197.499 58.296 196.145 57.816 194.971 56.856C193.819 55.8747 192.923 54.5094 192.283 52.76C191.643 51.0107 191.323 48.9734 191.323 46.648ZM193.691 46.648C193.691 50.1254 194.161 52.8134 195.099 54.712C196.038 56.5894 197.35 57.528 199.035 57.528C200.742 57.528 202.054 56.5894 202.971 54.712C203.91 52.8134 204.379 50.1254 204.379 46.648C204.379 43.1707 203.91 40.4934 202.971 38.616C202.033 36.7174 200.721 35.768 199.035 35.768C197.35 35.768 196.038 36.7174 195.099 38.616C194.161 40.4934 193.691 43.1707 193.691 46.648ZM210.11 56.504C210.11 56.0134 210.27 55.6187 210.59 55.32C210.91 55 211.326 54.84 211.838 54.84C212.435 54.84 212.883 55.064 213.182 55.512C213.502 55.9387 213.662 56.5574 213.662 57.368C213.662 58.4134 213.395 59.384 212.862 60.28C212.35 61.1974 211.624 61.976 210.686 62.616L210.366 62.136C211.838 61.0267 212.616 59.4694 212.702 57.464C212.446 57.8694 212.072 58.072 211.582 58.072C211.134 58.072 210.771 57.9227 210.494 57.624C210.238 57.3254 210.11 56.952 210.11 56.504ZM224.324 57.848V57.272L232.356 46.904C234.191 44.536 235.108 42.3707 235.108 40.408C235.108 38.9787 234.724 37.848 233.956 37.016C233.188 36.184 232.175 35.768 230.916 35.768C230.041 35.768 229.145 35.9814 228.228 36.408C227.311 36.8134 226.489 37.3787 225.764 38.104H225.572L225.412 36.376C226.159 35.9494 227.012 35.6187 227.972 35.384C228.953 35.128 229.935 35 230.916 35C232.879 35 234.457 35.48 235.652 36.44C236.868 37.3787 237.476 38.6374 237.476 40.216C237.476 41.1974 237.177 42.2854 236.58 43.48C235.983 44.6534 234.948 46.0827 233.476 47.768L226.372 55.928H238.084V57.848H224.324ZM241.608 46.648C241.608 44.3014 241.928 42.264 242.568 40.536C243.208 38.7867 244.104 37.432 245.256 36.472C246.43 35.4907 247.784 35 249.32 35C250.878 35 252.232 35.4907 253.384 36.472C254.536 37.432 255.432 38.7867 256.072 40.536C256.712 42.264 257.032 44.3014 257.032 46.648C257.032 48.9734 256.712 51.0107 256.072 52.76C255.432 54.5094 254.536 55.8747 253.384 56.856C252.232 57.816 250.878 58.296 249.32 58.296C247.784 58.296 246.43 57.816 245.256 56.856C244.104 55.8747 243.208 54.5094 242.568 52.76C241.928 51.0107 241.608 48.9734 241.608 46.648ZM243.976 46.648C243.976 50.1254 244.446 52.8134 245.384 54.712C246.323 56.5894 247.635 57.528 249.32 57.528C251.027 57.528 252.339 56.5894 253.256 54.712C254.195 52.8134 254.664 50.1254 254.664 46.648C254.664 43.1707 254.195 40.4934 253.256 38.616C252.318 36.7174 251.006 35.768 249.32 35.768C247.635 35.768 246.323 36.7174 245.384 38.616C244.446 40.4934 243.976 43.1707 243.976 46.648ZM259.279 57.848V57.272L267.311 46.904C269.146 44.536 270.063 42.3707 270.063 40.408C270.063 38.9787 269.679 37.848 268.911 37.016C268.143 36.184 267.13 35.768 265.871 35.768C264.996 35.768 264.1 35.9814 263.183 36.408C262.266 36.8134 261.444 37.3787 260.719 38.104H260.527L260.367 36.376C261.114 35.9494 261.967 35.6187 262.927 35.384C263.908 35.128 264.89 35 265.871 35C267.834 35 269.412 35.48 270.607 36.44C271.823 37.3787 272.431 38.6374 272.431 40.216C272.431 41.1974 272.132 42.2854 271.535 43.48C270.938 44.6534 269.903 46.0827 268.431 47.768L261.327 55.928H273.039V57.848H259.279ZM275.955 55.224C276.787 55.8854 277.694 56.44 278.675 56.888C279.657 57.3147 280.659 57.528 281.683 57.528C283.198 57.528 284.414 57.0267 285.331 56.024C286.27 55.0214 286.739 53.6987 286.739 52.056C286.739 50.4134 286.238 49.016 285.235 47.864C284.254 46.712 282.878 45.9654 281.107 45.624L277.043 44.856L277.971 35.448H287.699V37.368H278.579L278.035 42.904L281.683 43.608C283.881 44.0134 285.577 44.8987 286.771 46.264C287.987 47.6294 288.595 49.304 288.595 51.288C288.595 52.6747 288.307 53.9014 287.731 54.968C287.155 56.0134 286.345 56.8347 285.299 57.432C284.275 58.008 283.081 58.296 281.715 58.296C280.862 58.296 279.945 58.1894 278.963 57.976C277.982 57.7627 276.979 57.4854 275.955 57.144L275.763 55.224H275.955Z" fill="black"/>
</svg>
