<svg width="297" height="40" viewBox="0 0 297 40" fill="none" xmlns="http://www.w3.org/2000/svg">
<path d="M3.23399 27.384V0.588035H6.08999V27.132C6.08999 30.66 5.59999 33.404 4.61999 35.364C3.63999 37.324 2.14199 38.752 0.125987 39.648L-1.30534e-05 39.438C1.11999 38.654 1.93199 37.324 2.43599 35.448C2.96799 33.6 3.23399 30.912 3.23399 27.384ZM15.7552 29.988V0.588035H28.5652V2.64604L21.2152 1.68004C19.9272 1.51204 19.0592 1.42804 18.6112 1.42804V14.238C18.9752 14.238 19.8432 14.196 21.2152 14.112L28.1032 13.692V15.624L21.2152 15.204C19.8432 15.12 18.9752 15.078 18.6112 15.078V29.148C19.1152 29.148 19.9972 29.064 21.2572 28.896L28.6912 27.93V29.988H15.7552ZM35.6035 29.988L36.6535 3.51667e-05H37.1575L58.2835 25.536H58.5355L57.6115 0.588035H60.4675L59.4175 30.576H58.9135L37.7875 5.04004H37.5355L38.4595 29.988H35.6035ZM68.8787 29.988L69.9287 3.51667e-05H70.4327L91.5587 25.536H91.8107L90.8867 0.588035H93.7427L92.6927 30.576H92.1887L71.0627 5.04004H70.8107L71.7347 29.988H68.8787ZM109.084 29.988V17.556L98.6678 0.588035H101.86L111.226 15.96H111.478L118.954 0.588035H122.146L112.108 16.968V29.988H109.084ZM156.49 29.988L152.542 25.704C151.394 27.412 150.148 28.658 148.804 29.442C147.488 30.198 145.92 30.576 144.1 30.576C142.28 30.576 140.684 30.254 139.312 29.61C137.94 28.938 136.876 28.014 136.12 26.838C135.364 25.634 134.986 24.248 134.986 22.68C134.986 20.748 135.56 19.04 136.708 17.556C137.884 16.044 139.564 14.854 141.748 13.986L141.412 13.608C140.124 12.208 139.2 10.948 138.64 9.82804C138.08 8.68004 137.8 7.50404 137.8 6.30004C137.8 4.39604 138.402 2.87004 139.606 1.72204C140.81 0.574035 142.392 3.51667e-05 144.352 3.51667e-05C146.256 3.51667e-05 147.782 0.532035 148.93 1.59603C150.106 2.63203 150.694 4.01804 150.694 5.75404C150.694 7.32204 150.176 8.77804 149.14 10.122C148.132 11.466 146.76 12.586 145.024 13.482L153.256 22.428L156.196 14.616H159.052L153.928 23.142L160.228 29.988H156.49ZM143.302 11.634L144.436 12.852C146.844 11.256 148.048 8.98804 148.048 6.04803C148.048 4.45204 147.712 3.22004 147.04 2.35203C146.396 1.45603 145.5 1.00803 144.352 1.00803C143.204 1.00803 142.238 1.44203 141.454 2.31004C140.698 3.15004 140.32 4.27004 140.32 5.67003C140.32 6.62204 140.558 7.57404 141.034 8.52604C141.51 9.45004 142.266 10.486 143.302 11.634ZM137.716 22.344C137.716 24.5 138.346 26.25 139.606 27.594C140.894 28.91 142.56 29.568 144.604 29.568C147.404 29.568 149.826 28.028 151.87 24.948L142.378 14.616C139.27 16.268 137.716 18.844 137.716 22.344ZM175.591 27.384V0.588035H178.447V27.132C178.447 30.66 177.957 33.404 176.977 35.364C175.997 37.324 174.499 38.752 172.483 39.648L172.357 39.438C173.477 38.654 174.289 37.324 174.793 35.448C175.325 33.6 175.591 30.912 175.591 27.384ZM183.745 29.988L195.043 0.588035H197.647L208.945 29.988H205.879L200.671 16.212H191.137L186.811 29.988H183.745ZM195.337 2.77204L191.431 15.204H200.293L195.589 2.77204H195.337ZM211.935 29.064L212.187 26.544H212.439C213.531 27.496 214.763 28.238 216.135 28.77C217.507 29.302 218.865 29.568 220.209 29.568C222.113 29.568 223.653 29.05 224.829 28.014C226.005 26.95 226.593 25.536 226.593 23.772C226.593 22.792 226.369 21.882 225.921 21.042C225.501 20.202 224.787 19.348 223.779 18.48C222.799 17.612 221.441 16.674 219.705 15.666C218.501 14.966 217.353 14.238 216.261 13.482C215.169 12.698 214.273 11.802 213.573 10.794C212.873 9.75804 212.523 8.52604 212.523 7.09804C212.523 4.97004 213.293 3.26203 214.833 1.97403C216.373 0.658035 218.403 3.51667e-05 220.923 3.51667e-05C222.043 3.51667e-05 223.247 0.126035 224.535 0.378035C225.823 0.602036 226.817 0.896036 227.517 1.26004L227.307 3.61204H227.055C225.459 1.87604 223.415 1.00803 220.923 1.00803C219.131 1.00803 217.689 1.47004 216.597 2.39404C215.505 3.29004 214.959 4.50804 214.959 6.04803C214.959 7.19604 215.253 8.19004 215.841 9.03004C216.457 9.84204 217.241 10.584 218.193 11.256C219.145 11.9 220.167 12.53 221.259 13.146C222.519 13.874 223.737 14.644 224.913 15.456C226.117 16.268 227.097 17.248 227.853 18.396C228.637 19.516 229.029 20.93 229.029 22.638C229.029 24.206 228.665 25.592 227.937 26.796C227.209 27.972 226.173 28.896 224.829 29.568C223.513 30.24 221.973 30.576 220.209 30.576C219.089 30.576 217.773 30.436 216.261 30.156C214.749 29.876 213.307 29.512 211.935 29.064ZM233.942 15.288C233.942 13.132 234.32 11.13 235.076 9.28204C235.86 7.40604 236.938 5.78204 238.31 4.41004C239.71 3.01004 241.334 1.93204 243.182 1.17604C245.058 0.392035 247.074 3.51667e-05 249.23 3.51667e-05C251.386 3.51667e-05 253.388 0.392035 255.236 1.17604C257.112 1.93204 258.736 3.01004 260.108 4.41004C261.508 5.78204 262.586 7.40604 263.342 9.28204C264.126 11.13 264.518 13.132 264.518 15.288C264.518 17.444 264.126 19.46 263.342 21.336C262.586 23.184 261.508 24.808 260.108 26.208C258.736 27.58 257.112 28.658 255.236 29.442C253.388 30.198 251.386 30.576 249.23 30.576C247.074 30.576 245.058 30.198 243.182 29.442C241.334 28.658 239.71 27.58 238.31 26.208C236.938 24.808 235.86 23.184 235.076 21.336C234.32 19.46 233.942 17.444 233.942 15.288ZM237.134 15.288C237.134 18.144 237.638 20.65 238.646 22.806C239.654 24.934 241.068 26.6 242.888 27.804C244.708 28.98 246.822 29.568 249.23 29.568C251.638 29.568 253.752 28.98 255.572 27.804C257.392 26.6 258.806 24.92 259.814 22.764C260.822 20.608 261.326 18.116 261.326 15.288C261.326 12.46 260.822 9.98204 259.814 7.85404C258.806 5.69804 257.392 4.01804 255.572 2.81404C253.752 1.61004 251.638 1.00803 249.23 1.00803C246.822 1.00803 244.708 1.61004 242.888 2.81404C241.096 3.99004 239.682 5.65604 238.646 7.81204C237.638 9.94004 237.134 12.432 237.134 15.288ZM271.435 29.988L272.485 3.51667e-05H272.989L294.115 25.536H294.367L293.443 0.588035H296.299L295.249 30.576H294.745L273.619 5.04004H273.367L274.291 29.988H271.435Z" fill="black"/>
</svg>
