<svg width="101" height="15" viewBox="0 0 101 15" fill="none" xmlns="http://www.w3.org/2000/svg">
<path d="M4.67599 1.40002C4.70399 1.40002 4.71799 1.42802 4.71799 1.48402C4.71799 1.54002 4.70399 1.56802 4.67599 1.56802C4.40533 1.56802 4.19999 1.59602 4.05999 1.65202C3.91999 1.70802 3.82666 1.80602 3.77999 1.94602C3.73333 2.08602 3.70999 2.29136 3.70999 2.56202V10.43C3.70999 11.3727 3.48599 12.1287 3.03799 12.698C2.58999 13.2674 1.93666 13.552 1.07799 13.552C0.751327 13.552 0.489993 13.4914 0.293993 13.37C0.0979932 13.2487 -6.83963e-06 13.0854 -6.83963e-06 12.88C-6.83963e-06 12.7307 0.0466598 12.6 0.139993 12.488C0.223993 12.3854 0.359327 12.334 0.545993 12.334C0.73266 12.334 0.87266 12.3807 0.965993 12.474C1.06866 12.5674 1.15266 12.6747 1.21799 12.796C1.28333 12.9267 1.34866 13.0387 1.41399 13.132C1.48866 13.2254 1.59133 13.272 1.72199 13.272C2.00199 13.272 2.21666 13.09 2.36599 12.726C2.51533 12.3714 2.58999 11.7787 2.58999 10.948V2.53402C2.58999 2.26336 2.55733 2.06269 2.49199 1.93202C2.42666 1.79202 2.30066 1.69869 2.11399 1.65202C1.92733 1.59602 1.64733 1.56802 1.27399 1.56802C1.25533 1.56802 1.24599 1.54002 1.24599 1.48402C1.24599 1.42802 1.25533 1.40002 1.27399 1.40002C1.55399 1.40002 1.84799 1.40936 2.15599 1.42802C2.47333 1.43736 2.79999 1.44202 3.13599 1.44202C3.44399 1.44202 3.72399 1.43736 3.97599 1.42802C4.23733 1.40936 4.47066 1.40002 4.67599 1.40002ZM9.25607 10.276C8.78007 10.276 8.40207 10.1267 8.12207 9.82802C7.8514 9.52002 7.71607 9.09536 7.71607 8.55402V6.44002C7.71607 6.08536 7.6834 5.82869 7.61807 5.67002C7.56207 5.51136 7.45474 5.43202 7.29607 5.43202C7.17474 5.43202 7.03007 5.47402 6.86207 5.55802C6.82474 5.57669 6.79207 5.55802 6.76407 5.50202C6.7454 5.44602 6.75474 5.41336 6.79207 5.40402L8.44407 4.63402C8.46274 4.62469 8.4814 4.62002 8.50007 4.62002C8.5374 4.62002 8.57474 4.63402 8.61207 4.66202C8.6494 4.69002 8.66807 4.72269 8.66807 4.76002V8.02202C8.66807 8.56336 8.7614 8.96469 8.94807 9.22602C9.14407 9.47802 9.43807 9.60402 9.83007 9.60402C10.1661 9.60402 10.4974 9.50602 10.8241 9.31002C11.1601 9.11402 11.4447 8.85736 11.6781 8.54002L11.7481 8.69402C11.3561 9.21669 10.9547 9.61336 10.5441 9.88402C10.1427 10.1454 9.7134 10.276 9.25607 10.276ZM12.3641 4.76002V8.61002C12.3641 8.92736 12.3967 9.15602 12.4621 9.29602C12.5367 9.43602 12.6581 9.50602 12.8261 9.50602C12.9101 9.50602 13.0034 9.49202 13.1061 9.46402C13.2181 9.42669 13.3534 9.37536 13.5121 9.31002C13.5494 9.29136 13.5774 9.31002 13.5961 9.36602C13.6241 9.41269 13.6241 9.44536 13.5961 9.46402L11.8601 10.29C11.8414 10.2994 11.8181 10.304 11.7901 10.304C11.7154 10.304 11.6314 10.2014 11.5381 9.99602C11.4541 9.78136 11.4121 9.47802 11.4121 9.08602V6.44002C11.4121 6.08536 11.3794 5.82869 11.3141 5.67002C11.2487 5.51136 11.1414 5.43202 10.9921 5.43202C10.8707 5.43202 10.7214 5.47402 10.5441 5.55802C10.5161 5.57669 10.4881 5.55802 10.4601 5.50202C10.4414 5.44602 10.4507 5.41336 10.4881 5.40402L12.1401 4.63402C12.1587 4.62469 12.1774 4.62002 12.1961 4.62002C12.2241 4.62002 12.2567 4.63402 12.2941 4.66202C12.3407 4.69002 12.3641 4.72269 12.3641 4.76002ZM19.3931 10.15C19.3651 10.15 19.3511 10.122 19.3511 10.066C19.3511 10.01 19.3651 9.98202 19.3931 9.98202C19.7291 9.98202 19.9484 9.92136 20.0511 9.80002C20.1631 9.66936 20.2191 9.40802 20.2191 9.01602V6.81802C20.2191 6.28602 20.1211 5.89402 19.9251 5.64202C19.7291 5.38069 19.4164 5.25002 18.9871 5.25002C18.6604 5.25002 18.3291 5.34802 17.9931 5.54402C17.6664 5.73069 17.3864 5.99202 17.1531 6.32802L17.0971 6.16002C17.4797 5.63736 17.8717 5.24069 18.2731 4.97002C18.6837 4.69936 19.1131 4.56402 19.5611 4.56402C20.0744 4.56402 20.4711 4.71336 20.7511 5.01202C21.0404 5.31069 21.1851 5.73536 21.1851 6.28602V9.01602C21.1851 9.40802 21.2364 9.66936 21.3391 9.80002C21.4511 9.92136 21.6797 9.98202 22.0251 9.98202C22.0531 9.98202 22.0671 10.01 22.0671 10.066C22.0671 10.122 22.0531 10.15 22.0251 10.15C21.8477 10.15 21.6471 10.1454 21.4231 10.136C21.1991 10.1267 20.9611 10.122 20.7091 10.122C20.4571 10.122 20.2144 10.1267 19.9811 10.136C19.7571 10.1454 19.5611 10.15 19.3931 10.15ZM15.6271 10.15C15.5991 10.15 15.5851 10.122 15.5851 10.066C15.5851 10.01 15.5991 9.98202 15.6271 9.98202C15.9631 9.98202 16.1824 9.92136 16.2851 9.80002C16.3971 9.66936 16.4531 9.40802 16.4531 9.01602V6.28602C16.4531 5.98736 16.4157 5.76802 16.3411 5.62802C16.2757 5.48802 16.1591 5.41802 15.9911 5.41802C15.8977 5.41802 15.7904 5.43669 15.6691 5.47402C15.5477 5.50202 15.4077 5.54869 15.2491 5.61402C15.2117 5.63269 15.1837 5.61869 15.1651 5.57202C15.1464 5.51602 15.1511 5.47869 15.1791 5.46002L16.9011 4.63402C16.9384 4.62469 16.9664 4.62002 16.9851 4.62002C17.0691 4.62002 17.1624 4.72269 17.2651 4.92802C17.3677 5.13336 17.4191 5.42736 17.4191 5.81002V9.01602C17.4191 9.40802 17.4704 9.66936 17.5731 9.80002C17.6851 9.92136 17.9137 9.98202 18.2591 9.98202C18.2871 9.98202 18.3011 10.01 18.3011 10.066C18.3011 10.122 18.2871 10.15 18.2591 10.15C18.0817 10.15 17.8811 10.1454 17.6571 10.136C17.4331 10.1267 17.1951 10.122 16.9431 10.122C16.6911 10.122 16.4484 10.1267 16.2151 10.136C15.9911 10.1454 15.7951 10.15 15.6271 10.15ZM26.8345 10.318C26.2558 10.318 25.7705 10.192 25.3785 9.94002C24.9865 9.67869 24.6878 9.34269 24.4825 8.93202C24.2865 8.52136 24.1885 8.08269 24.1885 7.61602C24.1885 7.05602 24.3192 6.55202 24.5805 6.10402C24.8512 5.64669 25.2152 5.28736 25.6725 5.02602C26.1298 4.75536 26.6385 4.62002 27.1985 4.62002C27.7398 4.62002 28.1552 4.75536 28.4445 5.02602C28.7432 5.29669 28.8925 5.69336 28.8925 6.21602C28.8925 6.33736 28.8785 6.43536 28.8505 6.51002C28.8318 6.57536 28.7898 6.60802 28.7245 6.60802H27.7585C27.7958 6.04802 27.7212 5.62336 27.5345 5.33402C27.3572 5.04469 27.0865 4.90002 26.7225 4.90002C26.2652 4.90002 25.9058 5.09602 25.6445 5.48802C25.3925 5.88002 25.2665 6.40736 25.2665 7.07002C25.2665 7.60202 25.3505 8.07336 25.5185 8.48402C25.6865 8.88536 25.9338 9.19802 26.2605 9.42202C26.5872 9.64602 26.9838 9.75802 27.4505 9.75802C27.7585 9.75802 28.0105 9.71602 28.2065 9.63202C28.4118 9.54802 28.6218 9.44536 28.8365 9.32402C28.8552 9.30536 28.8785 9.31936 28.9065 9.36602C28.9438 9.40336 28.9532 9.43602 28.9345 9.46402C28.5985 9.77202 28.2578 9.99136 27.9125 10.122C27.5672 10.2527 27.2078 10.318 26.8345 10.318ZM24.9445 6.62202L24.9305 6.41202L28.0665 6.35602V6.60802L24.9445 6.62202ZM36.0536 9.88402C36.6416 9.39869 37.1269 8.97869 37.5096 8.62402C37.9016 8.26002 38.2143 7.94269 38.4476 7.67202C38.6809 7.39202 38.8489 7.13536 38.9516 6.90202C39.0543 6.66869 39.1056 6.43069 39.1056 6.18802C39.1056 5.82402 38.9983 5.52069 38.7836 5.27802C38.5783 5.03536 38.2983 4.91402 37.9436 4.91402C37.5703 4.91402 37.2576 5.06802 37.0056 5.37602C36.7536 5.68402 36.5389 6.11802 36.3616 6.67802C36.3523 6.69669 36.3196 6.70136 36.2636 6.69202C36.2076 6.68269 36.1843 6.66869 36.1936 6.65002L36.7676 4.43802C36.7769 4.41002 36.8096 4.40536 36.8656 4.42402C36.9216 4.43336 36.9403 4.44736 36.9216 4.46602C36.8843 4.62469 36.8889 4.72736 36.9356 4.77402C36.9916 4.82069 37.0523 4.84402 37.1176 4.84402C37.2669 4.84402 37.4583 4.79736 37.6916 4.70402C37.9249 4.61069 38.2236 4.56402 38.5876 4.56402C39.0823 4.56402 39.4649 4.69469 39.7356 4.95602C40.0156 5.20802 40.1556 5.53469 40.1556 5.93602C40.1556 6.21602 40.0856 6.48669 39.9456 6.74802C39.8056 7.00936 39.6049 7.27069 39.3436 7.53202C39.0916 7.78402 38.7883 8.05002 38.4336 8.33002C38.0883 8.61002 37.7103 8.90869 37.2996 9.22602C37.2623 9.25402 37.2529 9.27736 37.2716 9.29602C37.2903 9.31469 37.3183 9.32402 37.3556 9.32402C37.9716 9.32402 38.4803 9.31936 38.8816 9.31002C39.2829 9.30069 39.6003 9.27269 39.8336 9.22602C40.0763 9.17002 40.2536 9.08602 40.3656 8.97402C40.4869 8.85269 40.5709 8.68936 40.6176 8.48402C40.6269 8.45602 40.6549 8.44669 40.7016 8.45602C40.7576 8.46536 40.7856 8.47936 40.7856 8.49802L40.5476 9.99602C40.5476 10.0334 40.5336 10.0707 40.5056 10.108C40.4869 10.136 40.4589 10.15 40.4216 10.15C39.7589 10.15 39.0543 10.15 38.3076 10.15C37.5609 10.15 36.8423 10.15 36.1516 10.15C36.1049 10.15 36.0676 10.1174 36.0396 10.052C36.0116 9.97736 36.0163 9.92136 36.0536 9.88402ZM43.3664 14C43.3291 14.0094 43.2964 13.986 43.2684 13.93C43.2497 13.8834 43.2591 13.8554 43.2964 13.846C43.9031 13.6407 44.4024 13.398 44.7944 13.118C45.1864 12.8474 45.4944 12.5534 45.7184 12.236C45.9517 11.928 46.1151 11.62 46.2084 11.312C46.3018 11.004 46.3484 10.7194 46.3484 10.458C46.3484 10.1314 46.2924 9.83269 46.1804 9.56202C46.0684 9.28202 45.8958 9.06269 45.6624 8.90402C45.4384 8.73602 45.1444 8.65202 44.7804 8.65202C44.6777 8.65202 44.5704 8.65669 44.4584 8.66602C44.3558 8.67536 44.2438 8.69869 44.1224 8.73602C44.0944 8.74536 44.0711 8.72202 44.0524 8.66602C44.0337 8.61002 44.0431 8.57736 44.0804 8.56802C44.7898 8.38136 45.2938 8.12002 45.5924 7.78402C45.8911 7.44802 46.0404 6.98602 46.0404 6.39802C46.0404 5.94069 45.9518 5.57669 45.7744 5.30602C45.6064 5.03536 45.3311 4.90002 44.9484 4.90002C44.5471 4.90002 44.1971 5.03069 43.8984 5.29202C43.5997 5.55336 43.3571 5.96869 43.1704 6.53802C43.1611 6.55669 43.1284 6.56136 43.0724 6.55202C43.0164 6.54269 42.9931 6.52402 43.0024 6.49602L43.5204 4.45202C43.5391 4.42402 43.5717 4.41936 43.6184 4.43802C43.6744 4.44736 43.6977 4.46136 43.6884 4.48002C43.6511 4.63869 43.6604 4.74602 43.7164 4.80202C43.7724 4.84869 43.8331 4.87202 43.8984 4.87202C44.0478 4.87202 44.2484 4.82069 44.5004 4.71802C44.7524 4.61536 45.0558 4.56402 45.4104 4.56402C45.9611 4.56402 46.3811 4.72736 46.6704 5.05402C46.9597 5.38069 47.1044 5.74936 47.1044 6.16002C47.1044 6.50536 47.0204 6.84136 46.8524 7.16802C46.6938 7.48536 46.4604 7.76536 46.1524 8.00802C45.8538 8.24136 45.4898 8.40002 45.0604 8.48402L45.2004 8.28802C45.7324 8.29736 46.1664 8.40002 46.5024 8.59602C46.8478 8.78269 47.0998 9.03002 47.2584 9.33802C47.4264 9.63669 47.5104 9.95402 47.5104 10.29C47.5104 10.7194 47.3658 11.1674 47.0764 11.634C46.7871 12.11 46.3344 12.5534 45.7184 12.964C45.1118 13.384 44.3278 13.7294 43.3664 14ZM51.5232 6.35602L51.4392 6.20202C51.7938 5.77269 52.0878 5.44602 52.3212 5.22202C52.5545 4.99802 52.7552 4.84402 52.9232 4.76002C53.0912 4.66669 53.2498 4.62002 53.3992 4.62002C53.5952 4.62002 53.7912 4.68069 53.9872 4.80202C54.1832 4.92336 54.2812 5.07736 54.2812 5.26402C54.2812 5.40402 54.2345 5.52536 54.1412 5.62802C54.0478 5.72136 53.9218 5.76802 53.7632 5.76802C53.6138 5.76802 53.4925 5.72602 53.3992 5.64202C53.3152 5.55802 53.2265 5.47869 53.1332 5.40402C53.0492 5.32002 52.9325 5.27802 52.7832 5.27802C52.7085 5.27802 52.6245 5.30136 52.5312 5.34802C52.4378 5.39469 52.3118 5.49736 52.1532 5.65602C52.0038 5.80536 51.7938 6.03869 51.5232 6.35602ZM50.0392 10.15C50.0112 10.15 49.9972 10.122 49.9972 10.066C49.9972 10.01 50.0112 9.98202 50.0392 9.98202C50.3752 9.98202 50.5945 9.92136 50.6972 9.80002C50.8092 9.66936 50.8652 9.40802 50.8652 9.01602V6.28602C50.8652 5.98736 50.8278 5.76802 50.7532 5.62802C50.6878 5.48802 50.5712 5.41802 50.4032 5.41802C50.3098 5.41802 50.2025 5.43669 50.0812 5.47402C49.9598 5.50202 49.8198 5.54869 49.6612 5.61402C49.6238 5.63269 49.5958 5.61869 49.5772 5.57202C49.5585 5.51602 49.5632 5.47869 49.5912 5.46002L51.3132 4.63402C51.3505 4.62469 51.3785 4.62002 51.3972 4.62002C51.4812 4.62002 51.5745 4.72269 51.6772 4.92802C51.7798 5.13336 51.8312 5.42736 51.8312 5.81002V9.01602C51.8312 9.27736 51.8638 9.47802 51.9292 9.61802C52.0038 9.75802 52.1345 9.85602 52.3212 9.91202C52.5172 9.95869 52.7972 9.98202 53.1612 9.98202C53.1892 9.98202 53.2032 10.01 53.2032 10.066C53.2032 10.122 53.1892 10.15 53.1612 10.15C52.9185 10.15 52.6432 10.1454 52.3352 10.136C52.0272 10.1267 51.7005 10.122 51.3552 10.122C51.1032 10.122 50.8605 10.1267 50.6272 10.136C50.4032 10.1454 50.2072 10.15 50.0392 10.15ZM58.5151 10.332C58.1231 10.332 57.7591 10.2247 57.4231 10.01C57.0964 9.78602 56.8304 9.47336 56.6251 9.07202C56.4291 8.67069 56.3311 8.19469 56.3311 7.64402C56.3311 7.09336 56.4291 6.62669 56.6251 6.24402C56.8304 5.85202 57.0917 5.53469 57.4091 5.29202C57.7357 5.04936 58.0857 4.86736 58.4591 4.74602C58.8324 4.62469 59.1871 4.56402 59.5231 4.56402C59.8591 4.56402 60.1671 4.61536 60.4471 4.71802C60.7364 4.82069 61.0024 4.95602 61.2451 5.12402L61.0211 6.13202C60.8064 5.74936 60.5591 5.44602 60.2791 5.22202C59.9991 4.98869 59.6397 4.87202 59.2011 4.87202C58.6597 4.87202 58.2211 5.06336 57.8851 5.44602C57.5584 5.82869 57.3951 6.41669 57.3951 7.21002C57.3951 7.74202 57.4697 8.19936 57.6191 8.58202C57.7777 8.96469 57.9877 9.25869 58.2491 9.46402C58.5104 9.66936 58.8044 9.77202 59.1311 9.77202C59.5417 9.77202 59.9011 9.66002 60.2091 9.43602C60.5171 9.21202 60.8111 8.94136 61.0911 8.62402L61.2171 8.73602C61.0211 8.96002 60.7924 9.19802 60.5311 9.45002C60.2697 9.69269 59.9711 9.90269 59.6351 10.08C59.3084 10.248 58.9351 10.332 58.5151 10.332ZM61.7351 0.140024V8.58202C61.7351 8.90869 61.7724 9.14669 61.8471 9.29602C61.9217 9.43602 62.0431 9.50602 62.2111 9.50602C62.2951 9.50602 62.3931 9.49669 62.5051 9.47802C62.6264 9.45002 62.7571 9.39869 62.8971 9.32402C62.9344 9.30536 62.9624 9.32402 62.9811 9.38002C63.0091 9.42669 63.0091 9.45936 62.9811 9.47802L61.3151 10.276C61.2777 10.2947 61.2451 10.304 61.2171 10.304C61.1051 10.304 61.0024 10.192 60.9091 9.96802C60.8251 9.74402 60.7831 9.42669 60.7831 9.01602V1.83402C60.7831 1.49802 60.7504 1.25536 60.6851 1.10602C60.6291 0.95669 60.5171 0.882024 60.3491 0.882024C60.2651 0.882024 60.1764 0.90069 60.0831 0.938024C59.9897 0.966024 59.8731 1.01269 59.7331 1.07802C59.6957 1.08736 59.6631 1.06402 59.6351 1.00802C59.6164 0.952024 59.6211 0.919357 59.6491 0.910024L61.5111 0.0140239C61.5297 0.00469069 61.5531 2.40803e-05 61.5811 2.40803e-05C61.6091 2.40803e-05 61.6417 0.0140239 61.6791 0.0420235C61.7164 0.0700237 61.7351 0.102691 61.7351 0.140024ZM65.8331 9.00202C66.1225 9.00202 66.3511 9.10469 66.5191 9.31002C66.6871 9.51536 66.7711 9.83736 66.7711 10.276C66.7711 10.7334 66.6685 11.158 66.4631 11.55C66.2578 11.9514 65.9731 12.3434 65.6091 12.726C65.5718 12.754 65.5391 12.7494 65.5111 12.712C65.4831 12.684 65.4785 12.656 65.4971 12.628C65.7398 12.3107 65.8938 12.012 65.9591 11.732C66.0338 11.452 66.0711 11.1534 66.0711 10.836C66.0711 10.5654 66.0338 10.36 65.9591 10.22C65.8938 10.08 65.8098 9.96336 65.7071 9.87002L66.2391 9.77202C66.2485 9.93069 66.2018 10.052 66.0991 10.136C66.0058 10.22 65.8798 10.262 65.7211 10.262C65.5251 10.262 65.3711 10.206 65.2591 10.094C65.1565 9.98202 65.1051 9.83269 65.1051 9.64602C65.1051 9.44069 65.1658 9.28202 65.2871 9.17002C65.4178 9.05802 65.5998 9.00202 65.8331 9.00202ZM74.1079 9.88402C74.6959 9.39869 75.1812 8.97869 75.5639 8.62402C75.9559 8.26002 76.2686 7.94269 76.5019 7.67202C76.7352 7.39202 76.9032 7.13536 77.0059 6.90202C77.1086 6.66869 77.1599 6.43069 77.1599 6.18802C77.1599 5.82402 77.0526 5.52069 76.8379 5.27802C76.6326 5.03536 76.3526 4.91402 75.9979 4.91402C75.6246 4.91402 75.3119 5.06802 75.0599 5.37602C74.8079 5.68402 74.5932 6.11802 74.4159 6.67802C74.4066 6.69669 74.3739 6.70136 74.3179 6.69202C74.2619 6.68269 74.2386 6.66869 74.2479 6.65002L74.8219 4.43802C74.8312 4.41002 74.8639 4.40536 74.9199 4.42402C74.9759 4.43336 74.9946 4.44736 74.9759 4.46602C74.9386 4.62469 74.9432 4.72736 74.9899 4.77402C75.0459 4.82069 75.1066 4.84402 75.1719 4.84402C75.3212 4.84402 75.5126 4.79736 75.7459 4.70402C75.9792 4.61069 76.2779 4.56402 76.6419 4.56402C77.1366 4.56402 77.5192 4.69469 77.7899 4.95602C78.0699 5.20802 78.2099 5.53469 78.2099 5.93602C78.2099 6.21602 78.1399 6.48669 77.9999 6.74802C77.8599 7.00936 77.6592 7.27069 77.3979 7.53202C77.1459 7.78402 76.8426 8.05002 76.4879 8.33002C76.1426 8.61002 75.7646 8.90869 75.3539 9.22602C75.3166 9.25402 75.3072 9.27736 75.3259 9.29602C75.3446 9.31469 75.3726 9.32402 75.4099 9.32402C76.0259 9.32402 76.5346 9.31936 76.9359 9.31002C77.3372 9.30069 77.6546 9.27269 77.8879 9.22602C78.1306 9.17002 78.3079 9.08602 78.4199 8.97402C78.5412 8.85269 78.6252 8.68936 78.6719 8.48402C78.6812 8.45602 78.7092 8.44669 78.7559 8.45602C78.8119 8.46536 78.8399 8.47936 78.8399 8.49802L78.6019 9.99602C78.6019 10.0334 78.5879 10.0707 78.5599 10.108C78.5412 10.136 78.5132 10.15 78.4759 10.15C77.8132 10.15 77.1086 10.15 76.3619 10.15C75.6152 10.15 74.8966 10.15 74.2059 10.15C74.1592 10.15 74.1219 10.1174 74.0939 10.052C74.0659 9.97736 74.0706 9.92136 74.1079 9.88402ZM83.9827 10.332C83.4227 10.332 82.9187 10.206 82.4707 9.95402C82.032 9.70202 81.6867 9.35669 81.4347 8.91802C81.192 8.47936 81.0707 7.97536 81.0707 7.40602C81.0707 6.84602 81.192 6.35602 81.4347 5.93602C81.6867 5.50669 82.032 5.17069 82.4707 4.92802C82.9187 4.68536 83.4274 4.56402 83.9967 4.56402C84.5567 4.56402 85.0514 4.69002 85.4807 4.94202C85.91 5.18469 86.246 5.52536 86.4887 5.96402C86.7314 6.39336 86.8527 6.88802 86.8527 7.44802C86.8527 8.00802 86.7314 8.50736 86.4887 8.94602C86.246 9.37536 85.9054 9.71602 85.4667 9.96802C85.0374 10.2107 84.5427 10.332 83.9827 10.332ZM84.1367 10.108C84.6687 10.108 85.0607 9.87936 85.3127 9.42202C85.574 8.96469 85.7047 8.36736 85.7047 7.63002C85.7047 6.95802 85.616 6.41669 85.4387 6.00602C85.2707 5.58602 85.0467 5.27802 84.7667 5.08202C84.4867 4.88602 84.1834 4.78802 83.8567 4.78802C83.3247 4.78802 82.914 5.02136 82.6247 5.48802C82.3447 5.95469 82.2047 6.55202 82.2047 7.28002C82.2047 7.83069 82.284 8.32069 82.4427 8.75002C82.6014 9.17002 82.8254 9.50136 83.1147 9.74402C83.404 9.98669 83.7447 10.108 84.1367 10.108ZM89.2126 9.88402C89.8006 9.39869 90.2859 8.97869 90.6686 8.62402C91.0606 8.26002 91.3732 7.94269 91.6066 7.67202C91.8399 7.39202 92.0079 7.13536 92.1106 6.90202C92.2132 6.66869 92.2646 6.43069 92.2646 6.18802C92.2646 5.82402 92.1572 5.52069 91.9426 5.27802C91.7372 5.03536 91.4572 4.91402 91.1026 4.91402C90.7292 4.91402 90.4166 5.06802 90.1646 5.37602C89.9126 5.68402 89.6979 6.11802 89.5206 6.67802C89.5112 6.69669 89.4786 6.70136 89.4226 6.69202C89.3666 6.68269 89.3432 6.66869 89.3526 6.65002L89.9266 4.43802C89.9359 4.41002 89.9686 4.40536 90.0246 4.42402C90.0806 4.43336 90.0992 4.44736 90.0806 4.46602C90.0432 4.62469 90.0479 4.72736 90.0946 4.77402C90.1506 4.82069 90.2112 4.84402 90.2766 4.84402C90.4259 4.84402 90.6172 4.79736 90.8506 4.70402C91.0839 4.61069 91.3826 4.56402 91.7466 4.56402C92.2412 4.56402 92.6239 4.69469 92.8946 4.95602C93.1746 5.20802 93.3146 5.53469 93.3146 5.93602C93.3146 6.21602 93.2446 6.48669 93.1046 6.74802C92.9646 7.00936 92.7639 7.27069 92.5026 7.53202C92.2506 7.78402 91.9472 8.05002 91.5926 8.33002C91.2472 8.61002 90.8692 8.90869 90.4586 9.22602C90.4212 9.25402 90.4119 9.27736 90.4306 9.29602C90.4492 9.31469 90.4772 9.32402 90.5146 9.32402C91.1306 9.32402 91.6392 9.31936 92.0406 9.31002C92.4419 9.30069 92.7592 9.27269 92.9926 9.22602C93.2352 9.17002 93.4126 9.08602 93.5246 8.97402C93.6459 8.85269 93.7299 8.68936 93.7766 8.48402C93.7859 8.45602 93.8139 8.44669 93.8606 8.45602C93.9166 8.46536 93.9446 8.47936 93.9446 8.49802L93.7066 9.99602C93.7066 10.0334 93.6926 10.0707 93.6646 10.108C93.6459 10.136 93.6179 10.15 93.5806 10.15C92.9179 10.15 92.2132 10.15 91.4666 10.15C90.7199 10.15 90.0012 10.15 89.3106 10.15C89.2639 10.15 89.2266 10.1174 89.1986 10.052C89.1706 9.97736 89.1752 9.92136 89.2126 9.88402ZM96.8194 7.40602C97.7527 7.40602 98.4994 7.51802 99.0594 7.74202C99.6287 7.96602 100.039 8.27402 100.291 8.66602C100.553 9.05802 100.683 9.51069 100.683 10.024C100.683 10.556 100.543 11.0367 100.263 11.466C99.9927 11.9047 99.5634 12.3247 98.9754 12.726C98.3967 13.1367 97.6314 13.5614 96.6794 14C96.6421 14.0094 96.6094 13.9907 96.5814 13.944C96.5534 13.8974 96.5581 13.8647 96.5954 13.846C97.3794 13.4447 97.9861 13.0434 98.4154 12.642C98.8541 12.25 99.1574 11.8534 99.3254 11.452C99.5027 11.06 99.5914 10.6634 99.5914 10.262C99.5914 9.49669 99.3441 8.89936 98.8494 8.47002C98.3547 8.03136 97.6314 7.81202 96.6794 7.81202C96.5674 7.81202 96.5207 7.75602 96.5394 7.64402L96.9874 5.15202C96.9967 5.08669 97.0107 5.04936 97.0294 5.04002C97.0481 5.02136 97.0947 5.00736 97.1694 4.99802C97.9721 4.90469 98.5974 4.83002 99.0454 4.77402C99.4934 4.70869 99.8201 4.65736 100.025 4.62002C100.231 4.57336 100.361 4.52202 100.417 4.46602C100.483 4.40069 100.529 4.32136 100.557 4.22802C100.567 4.20002 100.595 4.19069 100.641 4.20002C100.697 4.20002 100.721 4.21869 100.711 4.25602L100.431 5.44602C100.394 5.56736 100.347 5.64202 100.291 5.67002C100.235 5.68869 100.151 5.69802 100.039 5.69802L97.3934 5.75402C97.2721 5.75402 97.2021 5.82402 97.1834 5.96402L96.8614 7.71402L96.8194 7.40602Z" fill="white"/>
</svg>
