<svg width="43" height="11" viewBox="0 0 43 11" fill="none" xmlns="http://www.w3.org/2000/svg">
<path d="M-1.33514e-05 9.95398V0.013979H1.67999L4.85799 8.63798L8.02199 0.013979H9.70199V9.95398H8.49799V2.25398L5.65599 9.95398H4.04599L1.20399 2.25398V9.95398H-1.33514e-05ZM13.4039 9.95398V0.013979H19.6479V1.18998H14.6079V4.39598H19.4799V5.54398H14.6079V8.77798H19.7599V9.95398H13.4039ZM23.1027 9.95398V0.013979H24.8107L29.7247 8.74998V0.013979H30.9287V9.95398H29.1367L24.3067 1.38598V9.95398H23.1027ZM38.6541 10.178C37.8888 10.178 37.2214 10.0286 36.6521 9.72998C36.0921 9.43131 35.6581 9.00665 35.3501 8.45598C35.0514 7.89598 34.9021 7.23798 34.9021 6.48198V-2.08616e-05H36.1061V6.48198C36.1061 7.28465 36.3254 7.90531 36.7641 8.34398C37.2121 8.78265 37.8421 9.00198 38.6541 9.00198C39.4568 9.00198 40.0774 8.78265 40.5161 8.34398C40.9641 7.90531 41.1881 7.28465 41.1881 6.48198V-2.08616e-05H42.3921V6.48198C42.3921 7.23798 42.2381 7.89598 41.9301 8.45598C41.6314 9.00665 41.2021 9.43131 40.6421 9.72998C40.0821 10.0286 39.4194 10.178 38.6541 10.178Z" fill="black"/>
</svg>
